<svg xmlns="http://www.w3.org/2000/svg" width="95.249" height="95.249" viewBox="0 0 95.249 95.249">
  <g id="Group_129" data-name="Group 129" transform="translate(-1100.623 -911.028)">
    <g id="Group_125" data-name="Group 125">
      <g id="Group_124" data-name="Group 124">
        <rect id="Rectangle_270" data-name="Rectangle 270" width="9.525" height="9.525" transform="translate(1129.197 930.077)" fill="#f5aeff"/>
        <path id="Path_223" data-name="Path 223" d="M1119.672,949.127v19.05h9.525V939.6h-9.525Z" fill="#f5aeff"/>
      </g>
    </g>
    <path id="Path_224" data-name="Path 224" d="M1176.822,930.077v-9.525h-57.149v9.525h-9.525V977.7h9.525v9.525h9.524v9.524h38.1v-9.524h9.525v-19.05h9.524v-38.1Zm-57.149,28.575V939.6h9.524v-9.525h9.525V939.6H1129.2v28.575h-9.524Z" fill="#cf61da"/>
    <g id="Group_127" data-name="Group 127">
      <g id="Group_126" data-name="Group 126">
        <path id="Path_225" data-name="Path 225" d="M1176.822,968.177v19.05h9.525v-19.05Z" fill="#8c3499"/>
        <rect id="Rectangle_271" data-name="Rectangle 271" width="9.525" height="9.525" transform="translate(1110.148 977.702)" fill="#8c3499"/>
        <rect id="Rectangle_272" data-name="Rectangle 272" width="9.525" height="9.525" transform="translate(1119.672 987.227)" fill="#8c3499"/>
        <rect id="Rectangle_273" data-name="Rectangle 273" width="9.525" height="9.525" transform="translate(1167.297 987.227)" fill="#8c3499"/>
      </g>
    </g>
    <g id="Group_128" data-name="Group 128">
      <path id="Path_226" data-name="Path 226" d="M1138.722,920.552h38.1v-9.525h-57.149v9.525h19.05Z" fill="#0e3059"/>
      <rect id="Rectangle_274" data-name="Rectangle 274" width="9.525" height="9.525" transform="translate(1110.148 920.552)" fill="#0e3059"/>
      <rect id="Rectangle_275" data-name="Rectangle 275" width="9.525" height="9.525" transform="translate(1176.822 920.552)" fill="#0e3059"/>
      <path id="Path_227" data-name="Path 227" d="M1186.346,930.077v57.149h9.525V930.077Z" fill="#0e3059"/>
      <path id="Path_228" data-name="Path 228" d="M1110.148,968.177v-38.1h-9.525v57.149h9.525v-19.05Z" fill="#0e3059"/>
      <rect id="Rectangle_276" data-name="Rectangle 276" width="9.525" height="9.525" transform="translate(1110.148 987.227)" fill="#0e3059"/>
      <rect id="Rectangle_277" data-name="Rectangle 277" width="9.525" height="9.525" transform="translate(1176.822 987.227)" fill="#0e3059"/>
      <path id="Path_229" data-name="Path 229" d="M1157.772,996.751h-38.1v9.525h57.149v-9.525h-19.05Z" fill="#0e3059"/>
    </g>
  </g>
</svg>
