<svg xmlns="http://www.w3.org/2000/svg" width="95.249" height="95.249" viewBox="0 0 95.249 95.249">
  <g id="Group_133" data-name="Group 133" transform="translate(-1226.001 -911.028)">
    <g id="Group_130" data-name="Group 130">
      <rect id="Rectangle_278" data-name="Rectangle 278" width="9.525" height="9.525" transform="translate(1254.576 930.077)" fill="#fff"/>
      <path id="Path_230" data-name="Path 230" d="M1245.051,949.127v19.05h9.525V939.6h-9.525Z" fill="#fff"/>
    </g>
    <path id="Path_231" data-name="Path 231" d="M1302.2,930.077v-9.525h-57.149v9.525h-9.525V977.7h9.525v9.525h9.525v9.524h38.1v-9.524h9.525v-19.05h9.525v-38.1Zm-57.149,28.575V939.6h9.525v-9.525h9.524V939.6h-9.524v28.575h-9.525Z" fill="#cecece"/>
    <g id="Group_131" data-name="Group 131">
      <path id="Path_232" data-name="Path 232" d="M1302.2,968.177v19.05h9.525v-19.05Z" fill="#aaa"/>
      <rect id="Rectangle_279" data-name="Rectangle 279" width="9.525" height="9.525" transform="translate(1235.526 977.702)" fill="#aaa"/>
      <rect id="Rectangle_280" data-name="Rectangle 280" width="9.525" height="9.525" transform="translate(1245.051 987.227)" fill="#aaa"/>
      <rect id="Rectangle_281" data-name="Rectangle 281" width="9.525" height="9.525" transform="translate(1292.675 987.227)" fill="#aaa"/>
    </g>
    <g id="Group_132" data-name="Group 132">
      <path id="Path_233" data-name="Path 233" d="M1264.1,920.552h38.1v-9.525h-57.149v9.525h19.05Z" fill="#0e3059"/>
      <rect id="Rectangle_282" data-name="Rectangle 282" width="9.525" height="9.525" transform="translate(1235.526 920.552)" fill="#0e3059"/>
      <rect id="Rectangle_283" data-name="Rectangle 283" width="9.525" height="9.525" transform="translate(1302.2 920.552)" fill="#0e3059"/>
      <path id="Path_234" data-name="Path 234" d="M1311.725,930.077v57.149h9.525V930.077Z" fill="#0e3059"/>
      <path id="Path_235" data-name="Path 235" d="M1235.526,968.177v-38.1H1226v57.149h9.525v-19.05Z" fill="#0e3059"/>
      <rect id="Rectangle_284" data-name="Rectangle 284" width="9.525" height="9.525" transform="translate(1235.526 987.227)" fill="#0e3059"/>
      <rect id="Rectangle_285" data-name="Rectangle 285" width="9.525" height="9.525" transform="translate(1302.2 987.227)" fill="#0e3059"/>
      <path id="Path_236" data-name="Path 236" d="M1283.15,996.751h-38.1v9.525H1302.2v-9.525h-19.05Z" fill="#0e3059"/>
    </g>
  </g>
</svg>
