<svg xmlns="http://www.w3.org/2000/svg" width="1514.204" height="698.915" viewBox="0 0 1514.204 698.915">
  <path id="Path_2" data-name="Path 2" d="M211.021,893.913l.056-654.588H219.4v-8.8h8.327v-8.8h8.327v-8.8l1447.53.309v8.8h8.327v8.8h8.327v8.8h8.327V894.222H1537.292v-8.8h-8.327v-8.8h-8.327v-8.8h-8.327v-8.8h-8.327l.088-37.632-1088.723-.309V858.7h-8.327v8.8h-8.327v8.8h-8.327v8.8H382.04v8.8Z" transform="translate(-202.898 -204.111)" fill="#4312db"/>
  <g id="Group_15" data-name="Group 15" transform="translate(-202.898 -204.111)">
    <g id="Group_11" data-name="Group 11">
      <rect id="Rectangle_8" data-name="Rectangle 8" width="8.327" height="663.392" transform="translate(202.927 239.325)" fill="#150c4c"/>
      <rect id="Rectangle_9" data-name="Rectangle 9" width="8.804" height="179.347" transform="translate(202.898 902.717) rotate(-90)" fill="#150c4c"/>
      <rect id="Rectangle_10" data-name="Rectangle 10" width="8.804" height="1447.459" transform="translate(236.263 213.069) rotate(-90)" fill="#150c4c"/>
      <rect id="Rectangle_11" data-name="Rectangle 11" width="8.327" height="8.804" transform="translate(211.282 230.521)" fill="#150c4c"/>
      <rect id="Rectangle_12" data-name="Rectangle 12" width="8.327" height="8.804" transform="translate(219.609 221.718)" fill="#150c4c"/>
      <rect id="Rectangle_13" data-name="Rectangle 13" width="8.327" height="8.804" transform="translate(227.936 212.914)" fill="#150c4c"/>
      <rect id="Rectangle_14" data-name="Rectangle 14" width="8.327" height="8.804" transform="translate(382.245 885.11)" fill="#150c4c"/>
      <rect id="Rectangle_15" data-name="Rectangle 15" width="8.327" height="8.804" transform="translate(390.572 876.306)" fill="#150c4c"/>
      <rect id="Rectangle_16" data-name="Rectangle 16" width="8.327" height="8.804" transform="translate(398.899 867.503)" fill="#150c4c"/>
      <rect id="Rectangle_17" data-name="Rectangle 17" width="8.327" height="8.804" transform="translate(407.226 858.699)" fill="#150c4c"/>
      <rect id="Rectangle_18" data-name="Rectangle 18" width="8.327" height="37.632" transform="translate(415.553 821.067)" fill="#150c4c"/>
      <rect id="Rectangle_19" data-name="Rectangle 19" width="8.804" height="179.347" transform="translate(1537.497 903.026) rotate(-90)" fill="#150c4c"/>
      <rect id="Rectangle_20" data-name="Rectangle 20" width="8.327" height="8.804" transform="translate(1537.497 894.222) rotate(-180)" fill="#150c4c"/>
      <rect id="Rectangle_21" data-name="Rectangle 21" width="8.327" height="8.804" transform="translate(1529.17 885.419) rotate(-180)" fill="#150c4c"/>
      <rect id="Rectangle_22" data-name="Rectangle 22" width="8.327" height="8.804" transform="translate(1520.843 876.615) rotate(-180)" fill="#150c4c"/>
      <rect id="Rectangle_23" data-name="Rectangle 23" width="8.327" height="8.804" transform="translate(1512.516 867.811) rotate(-180)" fill="#150c4c"/>
      <rect id="Rectangle_24" data-name="Rectangle 24" width="8.327" height="37.632" transform="translate(1504.189 859.008) rotate(-180)" fill="#150c4c"/>
      <rect id="Rectangle_25" data-name="Rectangle 25" width="8.804" height="1088.723" transform="translate(415.553 830.025) rotate(-90)" fill="#150c4c"/>
      <rect id="Rectangle_26" data-name="Rectangle 26" width="8.327" height="8.804" transform="translate(202.955 221.718)" fill="#150c4c"/>
      <rect id="Rectangle_27" data-name="Rectangle 27" width="8.327" height="8.804" transform="translate(211.282 212.914)" fill="#150c4c"/>
      <rect id="Rectangle_28" data-name="Rectangle 28" width="8.327" height="8.804" transform="translate(219.609 204.111)" fill="#150c4c"/>
      <rect id="Rectangle_29" data-name="Rectangle 29" width="8.327" height="663.392" transform="translate(1717.073 903.026) rotate(-180)" fill="#150c4c"/>
      <rect id="Rectangle_30" data-name="Rectangle 30" width="8.327" height="8.804" transform="translate(1708.775 239.634) rotate(-180)" fill="#150c4c"/>
      <rect id="Rectangle_31" data-name="Rectangle 31" width="8.327" height="8.804" transform="translate(1700.448 230.83) rotate(-180)" fill="#150c4c"/>
      <rect id="Rectangle_32" data-name="Rectangle 32" width="8.327" height="8.804" transform="translate(1692.121 222.027) rotate(-180)" fill="#150c4c"/>
      <rect id="Rectangle_33" data-name="Rectangle 33" width="8.327" height="8.804" transform="translate(1717.102 230.83) rotate(-180)" fill="#150c4c"/>
      <rect id="Rectangle_34" data-name="Rectangle 34" width="8.327" height="8.804" transform="translate(1708.775 222.027) rotate(-180)" fill="#150c4c"/>
      <rect id="Rectangle_35" data-name="Rectangle 35" width="8.327" height="8.804" transform="translate(1700.448 213.223) rotate(-180)" fill="#150c4c"/>
    </g>
    <rect id="Rectangle_36" data-name="Rectangle 36" width="8.267" height="46.381" transform="translate(1504.276 812.627)" fill="#2f11aa"/>
    <rect id="Rectangle_37" data-name="Rectangle 37" width="8.267" height="37.632" transform="translate(1512.561 821.375)" fill="#2f11aa"/>
    <rect id="Rectangle_38" data-name="Rectangle 38" width="8.302" height="8.748" transform="translate(1512.543 859.091)" fill="#2f11aa"/>
    <rect id="Rectangle_39" data-name="Rectangle 39" width="1088.723" height="8.748" transform="translate(415.553 812.627)" fill="#2f11aa"/>
    <rect id="Rectangle_40" data-name="Rectangle 40" width="8.302" height="8.748" transform="translate(1520.855 859.091)" fill="#2f11aa"/>
    <rect id="Rectangle_41" data-name="Rectangle 41" width="8.302" height="8.748" transform="translate(1520.855 867.839)" fill="#2f11aa"/>
    <rect id="Rectangle_42" data-name="Rectangle 42" width="8.302" height="8.804" transform="translate(1529.085 867.839)" fill="#2f11aa"/>
    <rect id="Rectangle_43" data-name="Rectangle 43" width="8.314" height="8.776" transform="translate(1529.182 876.643)" fill="#2f11aa"/>
    <rect id="Rectangle_44" data-name="Rectangle 44" width="8.095" height="8.776" transform="translate(1537.497 876.643)" fill="#2f11aa"/>
    <rect id="Rectangle_45" data-name="Rectangle 45" width="8.095" height="8.776" transform="translate(1537.497 885.419)" fill="#2f11aa"/>
    <rect id="Rectangle_46" data-name="Rectangle 46" width="154.765" height="8.748" transform="translate(1545.592 885.446)" fill="#2f11aa"/>
    <rect id="Rectangle_47" data-name="Rectangle 47" width="8.267" height="46.381" transform="translate(415.553 859.008) rotate(-180)" fill="#2f11aa"/>
    <rect id="Rectangle_48" data-name="Rectangle 48" width="8.267" height="37.632" transform="translate(407.269 859.008) rotate(-180)" fill="#2f11aa"/>
    <rect id="Rectangle_49" data-name="Rectangle 49" width="8.302" height="8.748" transform="translate(407.286 867.839) rotate(-180)" fill="#2f11aa"/>
    <rect id="Rectangle_50" data-name="Rectangle 50" width="8.302" height="8.748" transform="translate(398.974 867.839) rotate(-180)" fill="#2f11aa"/>
    <rect id="Rectangle_51" data-name="Rectangle 51" width="8.302" height="8.748" transform="translate(398.974 876.588) rotate(-180)" fill="#2f11aa"/>
    <rect id="Rectangle_52" data-name="Rectangle 52" width="8.302" height="8.804" transform="translate(390.744 876.643) rotate(-180)" fill="#2f11aa"/>
    <rect id="Rectangle_53" data-name="Rectangle 53" width="8.205" height="8.467" transform="translate(390.647 885.11) rotate(-180)" fill="#2f11aa"/>
    <rect id="Rectangle_54" data-name="Rectangle 54" width="8.205" height="8.467" transform="translate(382.442 885.11) rotate(-180)" fill="#2f11aa"/>
    <rect id="Rectangle_55" data-name="Rectangle 55" width="8.007" height="8.804" transform="translate(382.245 893.913) rotate(-180)" fill="#2f11aa"/>
    <rect id="Rectangle_56" data-name="Rectangle 56" width="154.564" height="8.748" transform="translate(374.237 893.913) rotate(-180)" fill="#2f11aa"/>
    <g id="Group_14" data-name="Group 14">
      <g id="Group_12" data-name="Group 12">
        <rect id="Rectangle_57" data-name="Rectangle 57" width="8.383" height="654.588" transform="translate(211.226 239.325)" fill="#5fa0ed"/>
        <rect id="Rectangle_58" data-name="Rectangle 58" width="8.383" height="8.383" transform="translate(219.581 230.732)" fill="#5fa0ed"/>
        <rect id="Rectangle_59" data-name="Rectangle 59" width="8.383" height="8.383" transform="translate(228.041 239.192)" fill="#5fa0ed"/>
        <rect id="Rectangle_60" data-name="Rectangle 60" width="8.383" height="8.383" transform="translate(236.53 247.68)" fill="#5fa0ed"/>
        <rect id="Rectangle_61" data-name="Rectangle 61" width="8.383" height="8.383" transform="translate(227.908 221.928)" fill="#5fa0ed"/>
        <rect id="Rectangle_62" data-name="Rectangle 62" width="8.383" height="8.383" transform="translate(236.502 230.521)" fill="#5fa0ed"/>
        <rect id="Rectangle_63" data-name="Rectangle 63" width="8.383" height="8.383" transform="translate(245.042 239.062)" fill="#5fa0ed"/>
        <rect id="Rectangle_64" data-name="Rectangle 64" width="8.383" height="8.383" transform="translate(236.291 213.223)" fill="#5fa0ed"/>
      </g>
      <g id="Group_13" data-name="Group 13">
        <rect id="Rectangle_65" data-name="Rectangle 65" width="8.383" height="655.032" transform="translate(1708.775 894.224) rotate(-180)" fill="#5fa0ed"/>
        <rect id="Rectangle_66" data-name="Rectangle 66" width="8.383" height="8.389" transform="translate(1700.42 238.981) rotate(-180)" fill="#5fa0ed"/>
        <rect id="Rectangle_67" data-name="Rectangle 67" width="8.383" height="8.389" transform="translate(1691.959 247.447) rotate(-180)" fill="#5fa0ed"/>
        <rect id="Rectangle_68" data-name="Rectangle 68" width="8.383" height="8.389" transform="translate(1683.471 255.941) rotate(-180)" fill="#5fa0ed"/>
        <rect id="Rectangle_69" data-name="Rectangle 69" width="8.383" height="8.389" transform="translate(1692.093 230.172) rotate(-180)" fill="#5fa0ed"/>
        <rect id="Rectangle_70" data-name="Rectangle 70" width="8.383" height="8.389" transform="translate(1683.499 238.771) rotate(-180)" fill="#5fa0ed"/>
        <rect id="Rectangle_71" data-name="Rectangle 71" width="8.383" height="8.389" transform="translate(1674.958 247.318) rotate(-180)" fill="#5fa0ed"/>
        <rect id="Rectangle_72" data-name="Rectangle 72" width="8.383" height="8.389" transform="translate(1683.709 221.461) rotate(-180)" fill="#5fa0ed"/>
      </g>
      <rect id="Rectangle_73" data-name="Rectangle 73" width="1430.652" height="8.389" transform="translate(244.675 213.072)" fill="#5fa0ed"/>
    </g>
  </g>
</svg>
