<svg xmlns="http://www.w3.org/2000/svg" width="846.485" height="157.657" viewBox="0 0 846.485 157.657">
  <g id="Group_101" data-name="Group 101" transform="translate(-536.757 -879.823)">
    <path id="Path_194" data-name="Path 194" d="M555.32,889.1v9.281h-9.281v120.533h9.281v9.281h809.361v-9.281h9.281V898.385h-9.281V889.1Z" fill="#4312db"/>
    <g id="Group_100" data-name="Group 100">
      <g id="Group_96" data-name="Group 96">
        <rect id="Rectangle_222" data-name="Rectangle 222" width="9.281" height="9.281" transform="translate(555.319 1037.48) rotate(-90)" fill="#150c4c"/>
        <rect id="Rectangle_223" data-name="Rectangle 223" width="9.281" height="9.281" transform="translate(546.038 1028.199) rotate(-90)" fill="#150c4c"/>
        <rect id="Rectangle_224" data-name="Rectangle 224" width="9.281" height="9.281" transform="translate(536.757 1018.919) rotate(-90)" fill="#150c4c"/>
      </g>
      <g id="Group_97" data-name="Group 97">
        <rect id="Rectangle_225" data-name="Rectangle 225" width="9.281" height="9.281" transform="translate(564.6 879.824) rotate(90)" fill="#150c4c"/>
        <rect id="Rectangle_226" data-name="Rectangle 226" width="9.281" height="9.281" transform="translate(555.319 889.104) rotate(90)" fill="#150c4c"/>
        <rect id="Rectangle_227" data-name="Rectangle 227" width="9.281" height="9.281" transform="translate(546.038 898.385) rotate(90)" fill="#150c4c"/>
      </g>
      <rect id="Rectangle_228" data-name="Rectangle 228" width="120.533" height="9.281" transform="translate(536.757 1018.919) rotate(-90)" fill="#150c4c"/>
      <g id="Group_98" data-name="Group 98">
        <rect id="Rectangle_229" data-name="Rectangle 229" width="9.281" height="9.281" transform="translate(1364.681 879.823) rotate(90)" fill="#150c4c"/>
        <rect id="Rectangle_230" data-name="Rectangle 230" width="9.281" height="9.281" transform="translate(1373.962 889.104) rotate(90)" fill="#150c4c"/>
        <rect id="Rectangle_231" data-name="Rectangle 231" width="9.281" height="9.281" transform="translate(1383.243 898.385) rotate(90)" fill="#150c4c"/>
      </g>
      <g id="Group_99" data-name="Group 99">
        <rect id="Rectangle_232" data-name="Rectangle 232" width="9.281" height="9.281" transform="translate(1355.4 1037.48) rotate(-90)" fill="#150c4c"/>
        <rect id="Rectangle_233" data-name="Rectangle 233" width="9.281" height="9.281" transform="translate(1364.681 1028.199) rotate(-90)" fill="#150c4c"/>
        <rect id="Rectangle_234" data-name="Rectangle 234" width="9.281" height="9.281" transform="translate(1373.962 1018.919) rotate(-90)" fill="#150c4c"/>
      </g>
      <rect id="Rectangle_235" data-name="Rectangle 235" width="120.533" height="9.281" transform="translate(1383.243 898.385) rotate(90)" fill="#150c4c"/>
      <rect id="Rectangle_236" data-name="Rectangle 236" width="809.361" height="9.281" transform="translate(1364.681 889.104) rotate(180)" fill="#150c4c"/>
      <rect id="Rectangle_237" data-name="Rectangle 237" width="809.361" height="9.281" transform="translate(1364.681 1037.48) rotate(180)" fill="#150c4c"/>
    </g>
  </g>
  <g id="Group_105" data-name="Group 105" transform="translate(-536.757 -879.823)">
    <g id="Group_102" data-name="Group 102">
      <rect id="Rectangle_238" data-name="Rectangle 238" width="9.525" height="9.525" transform="translate(627.325 930.077)" fill="#ffdb80"/>
      <path id="Path_195" data-name="Path 195" d="M617.8,949.127v19.05h9.525V939.6H617.8Z" fill="#ffdb80"/>
    </g>
    <path id="Path_196" data-name="Path 196" d="M674.949,930.077v-9.525H617.8v9.525h-9.525V977.7H617.8v9.525h9.525v9.524h38.1v-9.524h9.525v-19.05h9.525v-38.1ZM617.8,958.652V939.6h9.525v-9.525h9.525V939.6h-9.525v28.575H617.8Z" fill="#ffc942"/>
    <g id="Group_103" data-name="Group 103">
      <path id="Path_197" data-name="Path 197" d="M674.949,968.177v19.05h9.525v-19.05Z" fill="#ffb342"/>
      <rect id="Rectangle_239" data-name="Rectangle 239" width="9.525" height="9.525" transform="translate(608.275 977.702)" fill="#ffb342"/>
      <rect id="Rectangle_240" data-name="Rectangle 240" width="9.525" height="9.525" transform="translate(617.8 987.227)" fill="#ffb342"/>
      <rect id="Rectangle_241" data-name="Rectangle 241" width="9.525" height="9.525" transform="translate(665.424 987.227)" fill="#ffb342"/>
    </g>
    <g id="Group_104" data-name="Group 104">
      <path id="Path_198" data-name="Path 198" d="M636.85,920.552h38.1v-9.525H617.8v9.525h19.05Z" fill="#0e3059"/>
      <rect id="Rectangle_242" data-name="Rectangle 242" width="9.525" height="9.525" transform="translate(608.275 920.552)" fill="#0e3059"/>
      <rect id="Rectangle_243" data-name="Rectangle 243" width="9.525" height="9.525" transform="translate(674.949 920.552)" fill="#0e3059"/>
      <path id="Path_199" data-name="Path 199" d="M684.474,930.077v57.149H694V930.077Z" fill="#0e3059"/>
      <path id="Path_200" data-name="Path 200" d="M608.275,968.177v-38.1H598.75v57.149h9.525v-19.05Z" fill="#0e3059"/>
      <rect id="Rectangle_244" data-name="Rectangle 244" width="9.525" height="9.525" transform="translate(608.275 987.227)" fill="#0e3059"/>
      <rect id="Rectangle_245" data-name="Rectangle 245" width="9.525" height="9.525" transform="translate(674.949 987.227)" fill="#0e3059"/>
      <path id="Path_201" data-name="Path 201" d="M655.9,996.751H617.8v9.525h57.149v-9.525H655.9Z" fill="#0e3059"/>
    </g>
  </g>
  <g id="Group_111" data-name="Group 111" transform="translate(-536.757 -879.823)">
    <g id="Group_107" data-name="Group 107">
      <g id="Group_106" data-name="Group 106">
        <rect id="Rectangle_246" data-name="Rectangle 246" width="9.525" height="9.525" transform="translate(753.063 930.077)" fill="#e5ffdc"/>
        <path id="Path_202" data-name="Path 202" d="M743.538,949.127v19.05h9.525V939.6h-9.525Z" fill="#e5ffdc"/>
      </g>
    </g>
    <path id="Path_203" data-name="Path 203" d="M800.687,930.077v-9.525H743.538v9.525h-9.525V977.7h9.525v9.525h9.525v9.524h38.1v-9.524h9.525v-19.05h9.525v-38.1Zm-57.149,28.575V939.6h9.525v-9.525h9.525V939.6h-9.525v28.575h-9.525Z" fill="#7ae45e"/>
    <g id="Group_109" data-name="Group 109">
      <g id="Group_108" data-name="Group 108">
        <path id="Path_204" data-name="Path 204" d="M800.687,968.177v19.05h9.525v-19.05Z" fill="#458e30"/>
        <rect id="Rectangle_247" data-name="Rectangle 247" width="9.525" height="9.525" transform="translate(734.013 977.702)" fill="#458e30"/>
        <rect id="Rectangle_248" data-name="Rectangle 248" width="9.525" height="9.525" transform="translate(743.538 987.227)" fill="#458e30"/>
        <rect id="Rectangle_249" data-name="Rectangle 249" width="9.525" height="9.525" transform="translate(791.162 987.227)" fill="#458e30"/>
      </g>
    </g>
    <g id="Group_110" data-name="Group 110">
      <path id="Path_205" data-name="Path 205" d="M762.588,920.552h38.1v-9.525H743.538v9.525h19.05Z" fill="#0e3059"/>
      <rect id="Rectangle_250" data-name="Rectangle 250" width="9.525" height="9.525" transform="translate(734.013 920.552)" fill="#0e3059"/>
      <rect id="Rectangle_251" data-name="Rectangle 251" width="9.525" height="9.525" transform="translate(800.687 920.552)" fill="#0e3059"/>
      <path id="Path_206" data-name="Path 206" d="M810.212,930.077v57.149h9.525V930.077Z" fill="#0e3059"/>
      <path id="Path_207" data-name="Path 207" d="M734.013,968.177v-38.1h-9.525v57.149h9.525v-19.05Z" fill="#0e3059"/>
      <rect id="Rectangle_252" data-name="Rectangle 252" width="9.525" height="9.525" transform="translate(734.013 987.227)" fill="#0e3059"/>
      <rect id="Rectangle_253" data-name="Rectangle 253" width="9.525" height="9.525" transform="translate(800.687 987.227)" fill="#0e3059"/>
      <path id="Path_208" data-name="Path 208" d="M781.637,996.751h-38.1v9.525h57.149v-9.525h-19.05Z" fill="#0e3059"/>
    </g>
  </g>
  <g id="Group_117" data-name="Group 117" transform="translate(-536.757 -879.823)">
    <g id="Group_113" data-name="Group 113">
      <g id="Group_112" data-name="Group 112">
        <rect id="Rectangle_254" data-name="Rectangle 254" width="9.525" height="9.525" transform="translate(878.441 930.077)" fill="#ff7d8a"/>
        <path id="Path_209" data-name="Path 209" d="M868.916,949.127v19.05h9.525V939.6h-9.525Z" fill="#ff7d8a"/>
      </g>
    </g>
    <path id="Path_210" data-name="Path 210" d="M926.065,930.077v-9.525H868.916v9.525h-9.525V977.7h9.525v9.525h9.525v9.524h38.1v-9.524h9.525v-19.05h9.525v-38.1Zm-57.149,28.575V939.6h9.525v-9.525h9.525V939.6h-9.525v28.575h-9.525Z" fill="#cf010b"/>
    <g id="Group_115" data-name="Group 115">
      <g id="Group_114" data-name="Group 114">
        <path id="Path_211" data-name="Path 211" d="M926.065,968.177v19.05h9.525v-19.05Z" fill="#750e18"/>
        <rect id="Rectangle_255" data-name="Rectangle 255" width="9.525" height="9.525" transform="translate(859.391 977.702)" fill="#750e18"/>
        <rect id="Rectangle_256" data-name="Rectangle 256" width="9.525" height="9.525" transform="translate(868.916 987.227)" fill="#750e18"/>
        <rect id="Rectangle_257" data-name="Rectangle 257" width="9.525" height="9.525" transform="translate(916.54 987.227)" fill="#750e18"/>
      </g>
    </g>
    <g id="Group_116" data-name="Group 116">
      <path id="Path_212" data-name="Path 212" d="M887.966,920.552h38.1v-9.525H868.916v9.525h19.05Z" fill="#0e3059"/>
      <rect id="Rectangle_258" data-name="Rectangle 258" width="9.525" height="9.525" transform="translate(859.391 920.552)" fill="#0e3059"/>
      <rect id="Rectangle_259" data-name="Rectangle 259" width="9.525" height="9.525" transform="translate(926.065 920.552)" fill="#0e3059"/>
      <path id="Path_213" data-name="Path 213" d="M935.59,930.077v57.149h9.525V930.077Z" fill="#0e3059"/>
      <path id="Path_214" data-name="Path 214" d="M859.391,968.177v-38.1h-9.525v57.149h9.525v-19.05Z" fill="#0e3059"/>
      <rect id="Rectangle_260" data-name="Rectangle 260" width="9.525" height="9.525" transform="translate(859.391 987.227)" fill="#0e3059"/>
      <rect id="Rectangle_261" data-name="Rectangle 261" width="9.525" height="9.525" transform="translate(926.065 987.227)" fill="#0e3059"/>
      <path id="Path_215" data-name="Path 215" d="M907.016,996.751h-38.1v9.525h57.149v-9.525h-19.05Z" fill="#0e3059"/>
    </g>
  </g>
  <g id="Group_123" data-name="Group 123" transform="translate(-536.757 -879.823)">
    <g id="Group_119" data-name="Group 119">
      <g id="Group_118" data-name="Group 118">
        <rect id="Rectangle_262" data-name="Rectangle 262" width="9.525" height="9.525" transform="translate(1003.819 930.077)" fill="#85d1ff"/>
        <path id="Path_216" data-name="Path 216" d="M994.294,949.127v19.05h9.525V939.6h-9.525Z" fill="#85d1ff"/>
      </g>
    </g>
    <path id="Path_217" data-name="Path 217" d="M1051.443,930.077v-9.525H994.294v9.525h-9.525V977.7h9.525v9.525h9.525v9.524h38.1v-9.524h9.524v-19.05h9.525v-38.1Zm-57.149,28.575V939.6h9.525v-9.525h9.525V939.6h-9.525v28.575h-9.525Z" fill="#3294db"/>
    <g id="Group_121" data-name="Group 121">
      <g id="Group_120" data-name="Group 120">
        <path id="Path_218" data-name="Path 218" d="M1051.443,968.177v19.05h9.525v-19.05Z" fill="#0e517a"/>
        <rect id="Rectangle_263" data-name="Rectangle 263" width="9.525" height="9.525" transform="translate(984.769 977.702)" fill="#0e517a"/>
        <rect id="Rectangle_264" data-name="Rectangle 264" width="9.525" height="9.525" transform="translate(994.294 987.227)" fill="#0e517a"/>
        <rect id="Rectangle_265" data-name="Rectangle 265" width="9.525" height="9.525" transform="translate(1041.918 987.227)" fill="#0e517a"/>
      </g>
    </g>
    <g id="Group_122" data-name="Group 122">
      <path id="Path_219" data-name="Path 219" d="M1013.344,920.552h38.1v-9.525H994.294v9.525h19.05Z" fill="#0e3059"/>
      <rect id="Rectangle_266" data-name="Rectangle 266" width="9.525" height="9.525" transform="translate(984.769 920.552)" fill="#0e3059"/>
      <rect id="Rectangle_267" data-name="Rectangle 267" width="9.525" height="9.525" transform="translate(1051.443 920.552)" fill="#0e3059"/>
      <path id="Path_220" data-name="Path 220" d="M1060.968,930.077v57.149h9.525V930.077Z" fill="#0e3059"/>
      <path id="Path_221" data-name="Path 221" d="M984.769,968.177v-38.1h-9.525v57.149h9.525v-19.05Z" fill="#0e3059"/>
      <rect id="Rectangle_268" data-name="Rectangle 268" width="9.525" height="9.525" transform="translate(984.769 987.227)" fill="#0e3059"/>
      <rect id="Rectangle_269" data-name="Rectangle 269" width="9.525" height="9.525" transform="translate(1051.443 987.227)" fill="#0e3059"/>
      <path id="Path_222" data-name="Path 222" d="M1032.394,996.751h-38.1v9.525h57.149v-9.525h-19.05Z" fill="#0e3059"/>
    </g>
  </g>
  <g id="Group_129" data-name="Group 129" transform="translate(-536.757 -879.823)">
    <g id="Group_125" data-name="Group 125">
      <g id="Group_124" data-name="Group 124">
        <rect id="Rectangle_270" data-name="Rectangle 270" width="9.525" height="9.525" transform="translate(1129.197 930.077)" fill="#f5aeff"/>
        <path id="Path_223" data-name="Path 223" d="M1119.672,949.127v19.05h9.525V939.6h-9.525Z" fill="#f5aeff"/>
      </g>
    </g>
    <path id="Path_224" data-name="Path 224" d="M1176.822,930.077v-9.525h-57.149v9.525h-9.525V977.7h9.525v9.525h9.524v9.524h38.1v-9.524h9.525v-19.05h9.524v-38.1Zm-57.149,28.575V939.6h9.524v-9.525h9.525V939.6H1129.2v28.575h-9.524Z" fill="#cf61da"/>
    <g id="Group_127" data-name="Group 127">
      <g id="Group_126" data-name="Group 126">
        <path id="Path_225" data-name="Path 225" d="M1176.822,968.177v19.05h9.525v-19.05Z" fill="#8c3499"/>
        <rect id="Rectangle_271" data-name="Rectangle 271" width="9.525" height="9.525" transform="translate(1110.148 977.702)" fill="#8c3499"/>
        <rect id="Rectangle_272" data-name="Rectangle 272" width="9.525" height="9.525" transform="translate(1119.672 987.227)" fill="#8c3499"/>
        <rect id="Rectangle_273" data-name="Rectangle 273" width="9.525" height="9.525" transform="translate(1167.297 987.227)" fill="#8c3499"/>
      </g>
    </g>
    <g id="Group_128" data-name="Group 128">
      <path id="Path_226" data-name="Path 226" d="M1138.722,920.552h38.1v-9.525h-57.149v9.525h19.05Z" fill="#0e3059"/>
      <rect id="Rectangle_274" data-name="Rectangle 274" width="9.525" height="9.525" transform="translate(1110.148 920.552)" fill="#0e3059"/>
      <rect id="Rectangle_275" data-name="Rectangle 275" width="9.525" height="9.525" transform="translate(1176.822 920.552)" fill="#0e3059"/>
      <path id="Path_227" data-name="Path 227" d="M1186.346,930.077v57.149h9.525V930.077Z" fill="#0e3059"/>
      <path id="Path_228" data-name="Path 228" d="M1110.148,968.177v-38.1h-9.525v57.149h9.525v-19.05Z" fill="#0e3059"/>
      <rect id="Rectangle_276" data-name="Rectangle 276" width="9.525" height="9.525" transform="translate(1110.148 987.227)" fill="#0e3059"/>
      <rect id="Rectangle_277" data-name="Rectangle 277" width="9.525" height="9.525" transform="translate(1176.822 987.227)" fill="#0e3059"/>
      <path id="Path_229" data-name="Path 229" d="M1157.772,996.751h-38.1v9.525h57.149v-9.525h-19.05Z" fill="#0e3059"/>
    </g>
  </g>
  <g id="Group_133" data-name="Group 133" transform="translate(-536.757 -879.823)">
    <g id="Group_130" data-name="Group 130">
      <rect id="Rectangle_278" data-name="Rectangle 278" width="9.525" height="9.525" transform="translate(1254.576 930.077)" fill="#fff"/>
      <path id="Path_230" data-name="Path 230" d="M1245.051,949.127v19.05h9.525V939.6h-9.525Z" fill="#fff"/>
    </g>
    <path id="Path_231" data-name="Path 231" d="M1302.2,930.077v-9.525h-57.149v9.525h-9.525V977.7h9.525v9.525h9.525v9.524h38.1v-9.524h9.525v-19.05h9.525v-38.1Zm-57.149,28.575V939.6h9.525v-9.525h9.524V939.6h-9.524v28.575h-9.525Z" fill="#cecece"/>
    <g id="Group_131" data-name="Group 131">
      <path id="Path_232" data-name="Path 232" d="M1302.2,968.177v19.05h9.525v-19.05Z" fill="#aaa"/>
      <rect id="Rectangle_279" data-name="Rectangle 279" width="9.525" height="9.525" transform="translate(1235.526 977.702)" fill="#aaa"/>
      <rect id="Rectangle_280" data-name="Rectangle 280" width="9.525" height="9.525" transform="translate(1245.051 987.227)" fill="#aaa"/>
      <rect id="Rectangle_281" data-name="Rectangle 281" width="9.525" height="9.525" transform="translate(1292.675 987.227)" fill="#aaa"/>
    </g>
    <g id="Group_132" data-name="Group 132">
      <path id="Path_233" data-name="Path 233" d="M1264.1,920.552h38.1v-9.525h-57.149v9.525h19.05Z" fill="#0e3059"/>
      <rect id="Rectangle_282" data-name="Rectangle 282" width="9.525" height="9.525" transform="translate(1235.526 920.552)" fill="#0e3059"/>
      <rect id="Rectangle_283" data-name="Rectangle 283" width="9.525" height="9.525" transform="translate(1302.2 920.552)" fill="#0e3059"/>
      <path id="Path_234" data-name="Path 234" d="M1311.725,930.077v57.149h9.525V930.077Z" fill="#0e3059"/>
      <path id="Path_235" data-name="Path 235" d="M1235.526,968.177v-38.1H1226v57.149h9.525v-19.05Z" fill="#0e3059"/>
      <rect id="Rectangle_284" data-name="Rectangle 284" width="9.525" height="9.525" transform="translate(1235.526 987.227)" fill="#0e3059"/>
      <rect id="Rectangle_285" data-name="Rectangle 285" width="9.525" height="9.525" transform="translate(1302.2 987.227)" fill="#0e3059"/>
      <path id="Path_236" data-name="Path 236" d="M1283.15,996.751h-38.1v9.525H1302.2v-9.525h-19.05Z" fill="#0e3059"/>
    </g>
  </g>
</svg>
