<svg xmlns="http://www.w3.org/2000/svg" width="133.126" height="450.541" viewBox="0 0 133.126 450.541">
  <g id="Group_262" data-name="Group 262" transform="translate(-1503.199 -247.464)">
    <g id="Group_261" data-name="Group 261">
      <g id="Group_257" data-name="Group 257">
        <rect id="Rectangle_620" data-name="Rectangle 620" width="8.327" height="8.327" transform="translate(1503.199 264.118)" fill="#0e3059"/>
        <rect id="Rectangle_621" data-name="Rectangle 621" width="8.327" height="8.327" transform="translate(1511.526 255.791)" fill="#0e3059"/>
        <rect id="Rectangle_622" data-name="Rectangle 622" width="8.327" height="8.327" transform="translate(1519.853 247.464)" fill="#0e3059"/>
      </g>
      <g id="Group_258" data-name="Group 258">
        <rect id="Rectangle_623" data-name="Rectangle 623" width="8.327" height="8.327" transform="translate(1619.67 272.445) rotate(-180)" fill="#0e3059"/>
        <rect id="Rectangle_624" data-name="Rectangle 624" width="8.327" height="8.327" transform="translate(1611.343 264.118) rotate(-180)" fill="#0e3059"/>
        <rect id="Rectangle_625" data-name="Rectangle 625" width="8.327" height="8.327" transform="translate(1603.016 255.791) rotate(-180)" fill="#0e3059"/>
      </g>
      <rect id="Rectangle_626" data-name="Rectangle 626" width="83.163" height="8.327" transform="translate(1519.853 247.464)" fill="#0e3059"/>
      <g id="Group_259" data-name="Group 259">
        <rect id="Rectangle_627" data-name="Rectangle 627" width="8.327" height="8.327" transform="translate(1619.67 664.697) rotate(180)" fill="#0e3059"/>
        <rect id="Rectangle_628" data-name="Rectangle 628" width="8.327" height="8.327" transform="translate(1611.343 673.024) rotate(180)" fill="#0e3059"/>
        <rect id="Rectangle_629" data-name="Rectangle 629" width="8.327" height="8.327" transform="translate(1603.016 681.351) rotate(180)" fill="#0e3059"/>
      </g>
      <g id="Group_260" data-name="Group 260">
        <rect id="Rectangle_630" data-name="Rectangle 630" width="8.327" height="8.327" transform="translate(1503.199 656.37)" fill="#0e3059"/>
        <rect id="Rectangle_631" data-name="Rectangle 631" width="8.327" height="8.327" transform="translate(1511.526 664.697)" fill="#0e3059"/>
        <rect id="Rectangle_632" data-name="Rectangle 632" width="8.327" height="8.327" transform="translate(1519.853 673.024)" fill="#0e3059"/>
      </g>
      <rect id="Rectangle_633" data-name="Rectangle 633" width="83.163" height="8.327" transform="translate(1603.016 681.351) rotate(180)" fill="#0e3059"/>
      <rect id="Rectangle_634" data-name="Rectangle 634" width="400.578" height="8.327" transform="translate(1611.344 664.697) rotate(-90)" fill="#0e3059"/>
      <rect id="Rectangle_635" data-name="Rectangle 635" width="400.578" height="8.327" transform="translate(1503.199 664.697) rotate(-90)" fill="#0e3059"/>
    </g>
    <rect id="Rectangle_637" data-name="Rectangle 637" width="8.327" height="400.585" transform="translate(1603.016 264.118)" fill="#0b3777"/>
    <rect id="Rectangle_639" data-name="Rectangle 639" width="8.321" height="8.321" transform="translate(1594.696 664.703)" fill="#0b3777"/>
    <rect id="Rectangle_640" data-name="Rectangle 640" width="8.321" height="8.321" transform="translate(1594.696 255.795)" fill="#0b3777"/>
    <rect id="Rectangle_641" data-name="Rectangle 641" width="8.327" height="400.585" transform="translate(1519.86 664.703) rotate(-180)" fill="#0b3777"/>
    <rect id="Rectangle_642" data-name="Rectangle 642" width="8.321" height="8.321" transform="translate(1528.18 673.024) rotate(-180)" fill="#0b3777"/>
    <rect id="Rectangle_643" data-name="Rectangle 643" width="8.321" height="8.321" transform="translate(1528.18 264.115) rotate(-180)" fill="#0b3777"/>
    <rect id="Rectangle_644" data-name="Rectangle 644" width="83.163" height="8.327" transform="translate(1519.853 681.351)" fill="#2f11aa"/>
    <rect id="Rectangle_645" data-name="Rectangle 645" width="83.163" height="8.327" transform="translate(1519.853 689.678)" fill="#2f11aa"/>
    <rect id="Rectangle_646" data-name="Rectangle 646" width="8.327" height="8.327" transform="translate(1603.016 673.024)" fill="#2f11aa"/>
    <rect id="Rectangle_647" data-name="Rectangle 647" width="8.327" height="8.327" transform="translate(1611.343 673.024)" fill="#2f11aa"/>
    <rect id="Rectangle_648" data-name="Rectangle 648" width="8.327" height="8.327" transform="translate(1603.016 681.351)" fill="#2f11aa"/>
    <rect id="Rectangle_649" data-name="Rectangle 649" width="8.327" height="8.327" transform="translate(1611.343 664.697)" fill="#2f11aa"/>
    <rect id="Rectangle_650" data-name="Rectangle 650" width="8.327" height="8.327" transform="translate(1619.671 664.697)" fill="#2f11aa"/>
    <rect id="Rectangle_651" data-name="Rectangle 651" width="8.327" height="8.327" transform="translate(1611.343 255.791)" fill="#2f11aa"/>
    <rect id="Rectangle_652" data-name="Rectangle 652" width="8.327" height="8.327" transform="translate(1619.671 255.791)" fill="#2f11aa"/>
    <rect id="Rectangle_653" data-name="Rectangle 653" width="8.327" height="8.327" transform="translate(1603.016 247.464)" fill="#2f11aa"/>
    <rect id="Rectangle_654" data-name="Rectangle 654" width="8.327" height="8.327" transform="translate(1611.343 247.464)" fill="#2f11aa"/>
    <rect id="Rectangle_655" data-name="Rectangle 655" width="8.327" height="400.578" transform="translate(1619.671 264.119)" fill="#2f11aa"/>
    <rect id="Rectangle_656" data-name="Rectangle 656" width="8.327" height="400.578" transform="translate(1627.998 264.119)" fill="#2f11aa"/>
  </g>
</svg>
